G04 Board outline, 114.05 x 70.00 mm enlarged rounded card*
%FSLAX46Y46*%
%MOMM*%
%LPD*%
%ADD10C,0.100*%
G54D10*
X114046441Y65763228D02*
X114033380Y66095641D01*
X113994279Y66426005D01*
X113929378Y66752283D01*
X113839078Y67072463D01*
X113723936Y67384570D01*
X113584660Y67686682D01*
X113422111Y67976935D01*
X113237289Y68253540D01*
X113031336Y68514791D01*
X112805519Y68759078D01*
X112561232Y68984895D01*
X112299981Y69190849D01*
X112023376Y69375670D01*
X111733123Y69538219D01*
X111431011Y69677495D01*
X111118903Y69792638D01*
X110798724Y69882938D01*
X110472446Y69947838D01*
X110142082Y69986939D01*
X109809669Y70000000D01*
X4236772Y70000000D01*
X3904359Y69986939D01*
X3573995Y69947838D01*
X3247717Y69882938D01*
X2927537Y69792638D01*
X2615430Y69677495D01*
X2313318Y69538219D01*
X2023065Y69375670D01*
X1746460Y69190849D01*
X1485209Y68984895D01*
X1240922Y68759078D01*
X1015105Y68514791D01*
X809151Y68253540D01*
X624330Y67976935D01*
X461781Y67686682D01*
X322505Y67384570D01*
X207362Y67072463D01*
X117062Y66752283D01*
X52162Y66426005D01*
X13061Y66095641D01*
X0Y65763228D01*
X0Y4236772D01*
X13061Y3904359D01*
X52162Y3573995D01*
X117062Y3247717D01*
X207362Y2927537D01*
X322505Y2615430D01*
X461781Y2313318D01*
X624330Y2023065D01*
X809151Y1746460D01*
X1015105Y1485209D01*
X1240922Y1240922D01*
X1485209Y1015105D01*
X1746460Y809151D01*
X2023065Y624330D01*
X2313318Y461781D01*
X2615430Y322505D01*
X2927537Y207362D01*
X3247717Y117062D01*
X3573995Y52162D01*
X3904359Y13061D01*
X4236772Y0D01*
X109809669Y0D01*
X110142082Y13061D01*
X110472446Y52162D01*
X110798724Y117062D01*
X111118903Y207362D01*
X111431011Y322505D01*
X111733123Y461781D01*
X112023376Y624330D01*
X112299981Y809151D01*
X112561232Y1015105D01*
X112805519Y1240922D01*
X113031336Y1485209D01*
X113237289Y1746460D01*
X113422111Y2023065D01*
X113584660Y2313318D01*
X113723936Y2615430D01*
X113839078Y2927537D01*
X113929378Y3247717D01*
X113994279Y3573995D01*
X114033380Y3904359D01*
X114046441Y4236772D01*
X114046441Y65763228D01*
M02*
