G04 Board outline, 85.60 x 52.54 mm CR80 rounded card*
%FSLAX46Y46*%
%MOMM*%
%LPD*%
%ADD10C,0.100*%
G54D10*
X85600000Y49360000D02*
X85590197Y49609500D01*
X85560849Y49857462D01*
X85512136Y50102356D01*
X85444360Y50342674D01*
X85357937Y50576933D01*
X85253401Y50803690D01*
X85131396Y51021545D01*
X84992674Y51229157D01*
X84838091Y51425245D01*
X84668600Y51608600D01*
X84485245Y51778091D01*
X84289157Y51932674D01*
X84081545Y52071396D01*
X83863690Y52193401D01*
X83636933Y52297937D01*
X83402674Y52384360D01*
X83162356Y52452136D01*
X82917462Y52500849D01*
X82669500Y52530197D01*
X82420000Y52540000D01*
X3180000Y52540000D01*
X2930500Y52530197D01*
X2682538Y52500849D01*
X2437644Y52452136D01*
X2197326Y52384360D01*
X1963067Y52297937D01*
X1736310Y52193401D01*
X1518455Y52071396D01*
X1310843Y51932674D01*
X1114755Y51778091D01*
X931400Y51608600D01*
X761909Y51425245D01*
X607326Y51229157D01*
X468604Y51021545D01*
X346599Y50803690D01*
X242063Y50576933D01*
X155640Y50342674D01*
X87864Y50102356D01*
X39151Y49857462D01*
X9803Y49609500D01*
X0Y49360000D01*
X0Y3180000D01*
X9803Y2930500D01*
X39151Y2682538D01*
X87864Y2437644D01*
X155640Y2197326D01*
X242063Y1963067D01*
X346599Y1736310D01*
X468604Y1518455D01*
X607326Y1310843D01*
X761909Y1114755D01*
X931400Y931400D01*
X1114755Y761909D01*
X1310843Y607326D01*
X1518455Y468604D01*
X1736310Y346599D01*
X1963067Y242063D01*
X2197326Y155640D01*
X2437644Y87864D01*
X2682538Y39151D01*
X2930500Y9803D01*
X3180000Y0D01*
X82420000Y0D01*
X82669500Y9803D01*
X82917462Y39151D01*
X83162356Y87864D01*
X83402674Y155640D01*
X83636933Y242063D01*
X83863690Y346599D01*
X84081545Y468604D01*
X84289157Y607326D01*
X84485245Y761909D01*
X84668600Y931400D01*
X84838091Y1114755D01*
X84992674Y1310843D01*
X85131396Y1518455D01*
X85253401Y1736310D01*
X85357937Y1963067D01*
X85444360Y2197326D01*
X85512136Y2437644D01*
X85560849Y2682538D01*
X85590197Y2930500D01*
X85600000Y3180000D01*
X85600000Y49360000D01*
M02*
