G04 Generated decorative ENIG photo PCB card*
%FSLAX46Y46*%
%MOMM*%
%LPD*%
%ADD10C,0.010*%
G54D10*
G36*
X85350000Y49360000D02*
X85340968Y49589885D01*
X85313927Y49818353D01*
X85269044Y50043995D01*
X85206596Y50265420D01*
X85126967Y50481262D01*
X85030649Y50690192D01*
X84918236Y50890921D01*
X84790420Y51082211D01*
X84647989Y51262883D01*
X84491823Y51431823D01*
X84322883Y51587989D01*
X84142211Y51730420D01*
X83950921Y51858236D01*
X83750192Y51970649D01*
X83541262Y52066967D01*
X83325420Y52146596D01*
X83103995Y52209044D01*
X82878353Y52253927D01*
X82649885Y52280968D01*
X82420000Y52290000D01*
X3180000Y52290000D01*
X2950115Y52280968D01*
X2721647Y52253927D01*
X2496005Y52209044D01*
X2274580Y52146596D01*
X2058738Y52066967D01*
X1849808Y51970649D01*
X1649079Y51858236D01*
X1457789Y51730420D01*
X1277117Y51587989D01*
X1108177Y51431823D01*
X952011Y51262883D01*
X809580Y51082211D01*
X681764Y50890921D01*
X569351Y50690192D01*
X473033Y50481262D01*
X393404Y50265420D01*
X330956Y50043995D01*
X286073Y49818353D01*
X259032Y49589885D01*
X250000Y49360000D01*
X250000Y3180000D01*
X259032Y2950115D01*
X286073Y2721647D01*
X330956Y2496005D01*
X393404Y2274580D01*
X473033Y2058738D01*
X569351Y1849808D01*
X681764Y1649079D01*
X809580Y1457789D01*
X952011Y1277117D01*
X1108177Y1108177D01*
X1277117Y952011D01*
X1457789Y809580D01*
X1649079Y681764D01*
X1849808Y569351D01*
X2058738Y473033D01*
X2274580Y393404D01*
X2496005Y330956D01*
X2721647Y286073D01*
X2950115Y259032D01*
X3180000Y250000D01*
X82420000Y250000D01*
X82649885Y259032D01*
X82878353Y286073D01*
X83103995Y330956D01*
X83325420Y393404D01*
X83541262Y473033D01*
X83750192Y569351D01*
X83950921Y681764D01*
X84142211Y809580D01*
X84322883Y952011D01*
X84491823Y1108177D01*
X84647989Y1277117D01*
X84790420Y1457789D01*
X84918236Y1649079D01*
X85030649Y1849808D01*
X85126967Y2058738D01*
X85206596Y2274580D01*
X85269044Y2496005D01*
X85313927Y2721647D01*
X85340968Y2950115D01*
X85350000Y3180000D01*
X85350000Y49360000D01*
G37*
M02*
